<svg xmlns="http://www.w3.org/2000/svg" xml:space="preserve" xmlns:xlink="http://www.w3.org/1999/xlink" style="max-width: 100%;height: auto;" width="928" height="928" viewBox="0 0 928 928">
<rect width="928" height="928" fill="#ffffff" x="0" y="0" />
<g fill="#000000">
<g transform="translate(320,64) scale(5.4933333333333)"><rect width="6" height="6"/></g>
<g transform="translate(352,64) scale(5.4933333333333)"><rect width="6" height="6"/></g>
<g transform="translate(480,64) scale(5.4933333333333)"><rect width="6" height="6"/></g>
<g transform="translate(512,64) scale(5.4933333333333)"><rect width="6" height="6"/></g>
<g transform="translate(320,96) scale(5.4933333333333)"><rect width="6" height="6"/></g>
<g transform="translate(352,96) scale(5.4933333333333)"><rect width="6" height="6"/></g>
<g transform="translate(384,96) scale(5.4933333333333)"><rect width="6" height="6"/></g>
<g transform="translate(416,96) scale(5.4933333333333)"><rect width="6" height="6"/></g>
<g transform="translate(448,96) scale(5.4933333333333)"><rect width="6" height="6"/></g>
<g transform="translate(480,96) scale(5.4933333333333)"><rect width="6" height="6"/></g>
<g transform="translate(544,96) scale(5.4933333333333)"><rect width="6" height="6"/></g>
<g transform="translate(576,96) scale(5.4933333333333)"><rect width="6" height="6"/></g>
<g transform="translate(320,128) scale(5.4933333333333)"><rect width="6" height="6"/></g>
<g transform="translate(384,128) scale(5.4933333333333)"><rect width="6" height="6"/></g>
<g transform="translate(416,128) scale(5.4933333333333)"><rect width="6" height="6"/></g>
<g transform="translate(448,128) scale(5.4933333333333)"><rect width="6" height="6"/></g>
<g transform="translate(512,128) scale(5.4933333333333)"><rect width="6" height="6"/></g>
<g transform="translate(544,128) scale(5.4933333333333)"><rect width="6" height="6"/></g>
<g transform="translate(576,128) scale(5.4933333333333)"><rect width="6" height="6"/></g>
<g transform="translate(352,160) scale(5.4933333333333)"><rect width="6" height="6"/></g>
<g transform="translate(384,160) scale(5.4933333333333)"><rect width="6" height="6"/></g>
<g transform="translate(448,160) scale(5.4933333333333)"><rect width="6" height="6"/></g>
<g transform="translate(480,160) scale(5.4933333333333)"><rect width="6" height="6"/></g>
<g transform="translate(512,160) scale(5.4933333333333)"><rect width="6" height="6"/></g>
<g transform="translate(544,160) scale(5.4933333333333)"><rect width="6" height="6"/></g>
<g transform="translate(384,192) scale(5.4933333333333)"><rect width="6" height="6"/></g>
<g transform="translate(416,192) scale(5.4933333333333)"><rect width="6" height="6"/></g>
<g transform="translate(320,224) scale(5.4933333333333)"><rect width="6" height="6"/></g>
<g transform="translate(384,224) scale(5.4933333333333)"><rect width="6" height="6"/></g>
<g transform="translate(480,224) scale(5.4933333333333)"><rect width="6" height="6"/></g>
<g transform="translate(512,224) scale(5.4933333333333)"><rect width="6" height="6"/></g>
<g transform="translate(544,224) scale(5.4933333333333)"><rect width="6" height="6"/></g>
<g transform="translate(320,256) scale(5.4933333333333)"><rect width="6" height="6"/></g>
<g transform="translate(384,256) scale(5.4933333333333)"><rect width="6" height="6"/></g>
<g transform="translate(448,256) scale(5.4933333333333)"><rect width="6" height="6"/></g>
<g transform="translate(512,256) scale(5.4933333333333)"><rect width="6" height="6"/></g>
<g transform="translate(576,256) scale(5.4933333333333)"><rect width="6" height="6"/></g>
<g transform="translate(320,288) scale(5.4933333333333)"><rect width="6" height="6"/></g>
<g transform="translate(352,288) scale(5.4933333333333)"><rect width="6" height="6"/></g>
<g transform="translate(384,288) scale(5.4933333333333)"><rect width="6" height="6"/></g>
<g transform="translate(480,288) scale(5.4933333333333)"><rect width="6" height="6"/></g>
<g transform="translate(512,288) scale(5.4933333333333)"><rect width="6" height="6"/></g>
<g transform="translate(544,288) scale(5.4933333333333)"><rect width="6" height="6"/></g>
<g transform="translate(576,288) scale(5.4933333333333)"><rect width="6" height="6"/></g>
<g transform="translate(128,320) scale(5.4933333333333)"><rect width="6" height="6"/></g>
<g transform="translate(160,320) scale(5.4933333333333)"><rect width="6" height="6"/></g>
<g transform="translate(192,320) scale(5.4933333333333)"><rect width="6" height="6"/></g>
<g transform="translate(256,320) scale(5.4933333333333)"><rect width="6" height="6"/></g>
<g transform="translate(320,320) scale(5.4933333333333)"><rect width="6" height="6"/></g>
<g transform="translate(384,320) scale(5.4933333333333)"><rect width="6" height="6"/></g>
<g transform="translate(416,320) scale(5.4933333333333)"><rect width="6" height="6"/></g>
<g transform="translate(512,320) scale(5.4933333333333)"><rect width="6" height="6"/></g>
<g transform="translate(608,320) scale(5.4933333333333)"><rect width="6" height="6"/></g>
<g transform="translate(640,320) scale(5.4933333333333)"><rect width="6" height="6"/></g>
<g transform="translate(672,320) scale(5.4933333333333)"><rect width="6" height="6"/></g>
<g transform="translate(768,320) scale(5.4933333333333)"><rect width="6" height="6"/></g>
<g transform="translate(800,320) scale(5.4933333333333)"><rect width="6" height="6"/></g>
<g transform="translate(832,320) scale(5.4933333333333)"><rect width="6" height="6"/></g>
<g transform="translate(64,352) scale(5.4933333333333)"><rect width="6" height="6"/></g>
<g transform="translate(224,352) scale(5.4933333333333)"><rect width="6" height="6"/></g>
<g transform="translate(384,352) scale(5.4933333333333)"><rect width="6" height="6"/></g>
<g transform="translate(416,352) scale(5.4933333333333)"><rect width="6" height="6"/></g>
<g transform="translate(448,352) scale(5.4933333333333)"><rect width="6" height="6"/></g>
<g transform="translate(576,352) scale(5.4933333333333)"><rect width="6" height="6"/></g>
<g transform="translate(640,352) scale(5.4933333333333)"><rect width="6" height="6"/></g>
<g transform="translate(704,352) scale(5.4933333333333)"><rect width="6" height="6"/></g>
<g transform="translate(736,352) scale(5.4933333333333)"><rect width="6" height="6"/></g>
<g transform="translate(832,352) scale(5.4933333333333)"><rect width="6" height="6"/></g>
<g transform="translate(64,384) scale(5.4933333333333)"><rect width="6" height="6"/></g>
<g transform="translate(192,384) scale(5.4933333333333)"><rect width="6" height="6"/></g>
<g transform="translate(224,384) scale(5.4933333333333)"><rect width="6" height="6"/></g>
<g transform="translate(256,384) scale(5.4933333333333)"><rect width="6" height="6"/></g>
<g transform="translate(288,384) scale(5.4933333333333)"><rect width="6" height="6"/></g>
<g transform="translate(320,384) scale(5.4933333333333)"><rect width="6" height="6"/></g>
<g transform="translate(352,384) scale(5.4933333333333)"><rect width="6" height="6"/></g>
<g transform="translate(384,384) scale(5.4933333333333)"><rect width="6" height="6"/></g>
<g transform="translate(416,384) scale(5.4933333333333)"><rect width="6" height="6"/></g>
<g transform="translate(448,384) scale(5.4933333333333)"><rect width="6" height="6"/></g>
<g transform="translate(576,384) scale(5.4933333333333)"><rect width="6" height="6"/></g>
<g transform="translate(640,384) scale(5.4933333333333)"><rect width="6" height="6"/></g>
<g transform="translate(672,384) scale(5.4933333333333)"><rect width="6" height="6"/></g>
<g transform="translate(704,384) scale(5.4933333333333)"><rect width="6" height="6"/></g>
<g transform="translate(768,384) scale(5.4933333333333)"><rect width="6" height="6"/></g>
<g transform="translate(832,384) scale(5.4933333333333)"><rect width="6" height="6"/></g>
<g transform="translate(96,416) scale(5.4933333333333)"><rect width="6" height="6"/></g>
<g transform="translate(128,416) scale(5.4933333333333)"><rect width="6" height="6"/></g>
<g transform="translate(160,416) scale(5.4933333333333)"><rect width="6" height="6"/></g>
<g transform="translate(320,416) scale(5.4933333333333)"><rect width="6" height="6"/></g>
<g transform="translate(416,416) scale(5.4933333333333)"><rect width="6" height="6"/></g>
<g transform="translate(512,416) scale(5.4933333333333)"><rect width="6" height="6"/></g>
<g transform="translate(544,416) scale(5.4933333333333)"><rect width="6" height="6"/></g>
<g transform="translate(576,416) scale(5.4933333333333)"><rect width="6" height="6"/></g>
<g transform="translate(640,416) scale(5.4933333333333)"><rect width="6" height="6"/></g>
<g transform="translate(672,416) scale(5.4933333333333)"><rect width="6" height="6"/></g>
<g transform="translate(736,416) scale(5.4933333333333)"><rect width="6" height="6"/></g>
<g transform="translate(768,416) scale(5.4933333333333)"><rect width="6" height="6"/></g>
<g transform="translate(800,416) scale(5.4933333333333)"><rect width="6" height="6"/></g>
<g transform="translate(832,416) scale(5.4933333333333)"><rect width="6" height="6"/></g>
<g transform="translate(64,448) scale(5.4933333333333)"><rect width="6" height="6"/></g>
<g transform="translate(96,448) scale(5.4933333333333)"><rect width="6" height="6"/></g>
<g transform="translate(192,448) scale(5.4933333333333)"><rect width="6" height="6"/></g>
<g transform="translate(256,448) scale(5.4933333333333)"><rect width="6" height="6"/></g>
<g transform="translate(352,448) scale(5.4933333333333)"><rect width="6" height="6"/></g>
<g transform="translate(384,448) scale(5.4933333333333)"><rect width="6" height="6"/></g>
<g transform="translate(544,448) scale(5.4933333333333)"><rect width="6" height="6"/></g>
<g transform="translate(576,448) scale(5.4933333333333)"><rect width="6" height="6"/></g>
<g transform="translate(640,448) scale(5.4933333333333)"><rect width="6" height="6"/></g>
<g transform="translate(704,448) scale(5.4933333333333)"><rect width="6" height="6"/></g>
<g transform="translate(736,448) scale(5.4933333333333)"><rect width="6" height="6"/></g>
<g transform="translate(832,448) scale(5.4933333333333)"><rect width="6" height="6"/></g>
<g transform="translate(64,480) scale(5.4933333333333)"><rect width="6" height="6"/></g>
<g transform="translate(96,480) scale(5.4933333333333)"><rect width="6" height="6"/></g>
<g transform="translate(160,480) scale(5.4933333333333)"><rect width="6" height="6"/></g>
<g transform="translate(192,480) scale(5.4933333333333)"><rect width="6" height="6"/></g>
<g transform="translate(224,480) scale(5.4933333333333)"><rect width="6" height="6"/></g>
<g transform="translate(320,480) scale(5.4933333333333)"><rect width="6" height="6"/></g>
<g transform="translate(480,480) scale(5.4933333333333)"><rect width="6" height="6"/></g>
<g transform="translate(512,480) scale(5.4933333333333)"><rect width="6" height="6"/></g>
<g transform="translate(544,480) scale(5.4933333333333)"><rect width="6" height="6"/></g>
<g transform="translate(640,480) scale(5.4933333333333)"><rect width="6" height="6"/></g>
<g transform="translate(672,480) scale(5.4933333333333)"><rect width="6" height="6"/></g>
<g transform="translate(736,480) scale(5.4933333333333)"><rect width="6" height="6"/></g>
<g transform="translate(768,480) scale(5.4933333333333)"><rect width="6" height="6"/></g>
<g transform="translate(800,480) scale(5.4933333333333)"><rect width="6" height="6"/></g>
<g transform="translate(832,480) scale(5.4933333333333)"><rect width="6" height="6"/></g>
<g transform="translate(64,512) scale(5.4933333333333)"><rect width="6" height="6"/></g>
<g transform="translate(128,512) scale(5.4933333333333)"><rect width="6" height="6"/></g>
<g transform="translate(160,512) scale(5.4933333333333)"><rect width="6" height="6"/></g>
<g transform="translate(224,512) scale(5.4933333333333)"><rect width="6" height="6"/></g>
<g transform="translate(256,512) scale(5.4933333333333)"><rect width="6" height="6"/></g>
<g transform="translate(352,512) scale(5.4933333333333)"><rect width="6" height="6"/></g>
<g transform="translate(416,512) scale(5.4933333333333)"><rect width="6" height="6"/></g>
<g transform="translate(480,512) scale(5.4933333333333)"><rect width="6" height="6"/></g>
<g transform="translate(544,512) scale(5.4933333333333)"><rect width="6" height="6"/></g>
<g transform="translate(576,512) scale(5.4933333333333)"><rect width="6" height="6"/></g>
<g transform="translate(608,512) scale(5.4933333333333)"><rect width="6" height="6"/></g>
<g transform="translate(672,512) scale(5.4933333333333)"><rect width="6" height="6"/></g>
<g transform="translate(704,512) scale(5.4933333333333)"><rect width="6" height="6"/></g>
<g transform="translate(736,512) scale(5.4933333333333)"><rect width="6" height="6"/></g>
<g transform="translate(832,512) scale(5.4933333333333)"><rect width="6" height="6"/></g>
<g transform="translate(64,544) scale(5.4933333333333)"><rect width="6" height="6"/></g>
<g transform="translate(128,544) scale(5.4933333333333)"><rect width="6" height="6"/></g>
<g transform="translate(160,544) scale(5.4933333333333)"><rect width="6" height="6"/></g>
<g transform="translate(192,544) scale(5.4933333333333)"><rect width="6" height="6"/></g>
<g transform="translate(320,544) scale(5.4933333333333)"><rect width="6" height="6"/></g>
<g transform="translate(384,544) scale(5.4933333333333)"><rect width="6" height="6"/></g>
<g transform="translate(448,544) scale(5.4933333333333)"><rect width="6" height="6"/></g>
<g transform="translate(480,544) scale(5.4933333333333)"><rect width="6" height="6"/></g>
<g transform="translate(544,544) scale(5.4933333333333)"><rect width="6" height="6"/></g>
<g transform="translate(768,544) scale(5.4933333333333)"><rect width="6" height="6"/></g>
<g transform="translate(800,544) scale(5.4933333333333)"><rect width="6" height="6"/></g>
<g transform="translate(64,576) scale(5.4933333333333)"><rect width="6" height="6"/></g>
<g transform="translate(160,576) scale(5.4933333333333)"><rect width="6" height="6"/></g>
<g transform="translate(256,576) scale(5.4933333333333)"><rect width="6" height="6"/></g>
<g transform="translate(288,576) scale(5.4933333333333)"><rect width="6" height="6"/></g>
<g transform="translate(320,576) scale(5.4933333333333)"><rect width="6" height="6"/></g>
<g transform="translate(416,576) scale(5.4933333333333)"><rect width="6" height="6"/></g>
<g transform="translate(448,576) scale(5.4933333333333)"><rect width="6" height="6"/></g>
<g transform="translate(512,576) scale(5.4933333333333)"><rect width="6" height="6"/></g>
<g transform="translate(544,576) scale(5.4933333333333)"><rect width="6" height="6"/></g>
<g transform="translate(576,576) scale(5.4933333333333)"><rect width="6" height="6"/></g>
<g transform="translate(608,576) scale(5.4933333333333)"><rect width="6" height="6"/></g>
<g transform="translate(640,576) scale(5.4933333333333)"><rect width="6" height="6"/></g>
<g transform="translate(672,576) scale(5.4933333333333)"><rect width="6" height="6"/></g>
<g transform="translate(704,576) scale(5.4933333333333)"><rect width="6" height="6"/></g>
<g transform="translate(320,608) scale(5.4933333333333)"><rect width="6" height="6"/></g>
<g transform="translate(352,608) scale(5.4933333333333)"><rect width="6" height="6"/></g>
<g transform="translate(384,608) scale(5.4933333333333)"><rect width="6" height="6"/></g>
<g transform="translate(416,608) scale(5.4933333333333)"><rect width="6" height="6"/></g>
<g transform="translate(480,608) scale(5.4933333333333)"><rect width="6" height="6"/></g>
<g transform="translate(512,608) scale(5.4933333333333)"><rect width="6" height="6"/></g>
<g transform="translate(544,608) scale(5.4933333333333)"><rect width="6" height="6"/></g>
<g transform="translate(576,608) scale(5.4933333333333)"><rect width="6" height="6"/></g>
<g transform="translate(704,608) scale(5.4933333333333)"><rect width="6" height="6"/></g>
<g transform="translate(736,608) scale(5.4933333333333)"><rect width="6" height="6"/></g>
<g transform="translate(768,608) scale(5.4933333333333)"><rect width="6" height="6"/></g>
<g transform="translate(832,608) scale(5.4933333333333)"><rect width="6" height="6"/></g>
<g transform="translate(384,640) scale(5.4933333333333)"><rect width="6" height="6"/></g>
<g transform="translate(480,640) scale(5.4933333333333)"><rect width="6" height="6"/></g>
<g transform="translate(544,640) scale(5.4933333333333)"><rect width="6" height="6"/></g>
<g transform="translate(576,640) scale(5.4933333333333)"><rect width="6" height="6"/></g>
<g transform="translate(640,640) scale(5.4933333333333)"><rect width="6" height="6"/></g>
<g transform="translate(704,640) scale(5.4933333333333)"><rect width="6" height="6"/></g>
<g transform="translate(832,640) scale(5.4933333333333)"><rect width="6" height="6"/></g>
<g transform="translate(448,672) scale(5.4933333333333)"><rect width="6" height="6"/></g>
<g transform="translate(480,672) scale(5.4933333333333)"><rect width="6" height="6"/></g>
<g transform="translate(512,672) scale(5.4933333333333)"><rect width="6" height="6"/></g>
<g transform="translate(576,672) scale(5.4933333333333)"><rect width="6" height="6"/></g>
<g transform="translate(704,672) scale(5.4933333333333)"><rect width="6" height="6"/></g>
<g transform="translate(800,672) scale(5.4933333333333)"><rect width="6" height="6"/></g>
<g transform="translate(832,672) scale(5.4933333333333)"><rect width="6" height="6"/></g>
<g transform="translate(320,704) scale(5.4933333333333)"><rect width="6" height="6"/></g>
<g transform="translate(352,704) scale(5.4933333333333)"><rect width="6" height="6"/></g>
<g transform="translate(416,704) scale(5.4933333333333)"><rect width="6" height="6"/></g>
<g transform="translate(448,704) scale(5.4933333333333)"><rect width="6" height="6"/></g>
<g transform="translate(480,704) scale(5.4933333333333)"><rect width="6" height="6"/></g>
<g transform="translate(576,704) scale(5.4933333333333)"><rect width="6" height="6"/></g>
<g transform="translate(608,704) scale(5.4933333333333)"><rect width="6" height="6"/></g>
<g transform="translate(640,704) scale(5.4933333333333)"><rect width="6" height="6"/></g>
<g transform="translate(672,704) scale(5.4933333333333)"><rect width="6" height="6"/></g>
<g transform="translate(704,704) scale(5.4933333333333)"><rect width="6" height="6"/></g>
<g transform="translate(736,704) scale(5.4933333333333)"><rect width="6" height="6"/></g>
<g transform="translate(832,704) scale(5.4933333333333)"><rect width="6" height="6"/></g>
<g transform="translate(320,736) scale(5.4933333333333)"><rect width="6" height="6"/></g>
<g transform="translate(384,736) scale(5.4933333333333)"><rect width="6" height="6"/></g>
<g transform="translate(544,736) scale(5.4933333333333)"><rect width="6" height="6"/></g>
<g transform="translate(576,736) scale(5.4933333333333)"><rect width="6" height="6"/></g>
<g transform="translate(608,736) scale(5.4933333333333)"><rect width="6" height="6"/></g>
<g transform="translate(672,736) scale(5.4933333333333)"><rect width="6" height="6"/></g>
<g transform="translate(736,736) scale(5.4933333333333)"><rect width="6" height="6"/></g>
<g transform="translate(832,736) scale(5.4933333333333)"><rect width="6" height="6"/></g>
<g transform="translate(320,768) scale(5.4933333333333)"><rect width="6" height="6"/></g>
<g transform="translate(352,768) scale(5.4933333333333)"><rect width="6" height="6"/></g>
<g transform="translate(416,768) scale(5.4933333333333)"><rect width="6" height="6"/></g>
<g transform="translate(512,768) scale(5.4933333333333)"><rect width="6" height="6"/></g>
<g transform="translate(576,768) scale(5.4933333333333)"><rect width="6" height="6"/></g>
<g transform="translate(640,768) scale(5.4933333333333)"><rect width="6" height="6"/></g>
<g transform="translate(704,768) scale(5.4933333333333)"><rect width="6" height="6"/></g>
<g transform="translate(736,768) scale(5.4933333333333)"><rect width="6" height="6"/></g>
<g transform="translate(768,768) scale(5.4933333333333)"><rect width="6" height="6"/></g>
<g transform="translate(832,768) scale(5.4933333333333)"><rect width="6" height="6"/></g>
<g transform="translate(416,800) scale(5.4933333333333)"><rect width="6" height="6"/></g>
<g transform="translate(640,800) scale(5.4933333333333)"><rect width="6" height="6"/></g>
<g transform="translate(672,800) scale(5.4933333333333)"><rect width="6" height="6"/></g>
<g transform="translate(736,800) scale(5.4933333333333)"><rect width="6" height="6"/></g>
<g transform="translate(768,800) scale(5.4933333333333)"><rect width="6" height="6"/></g>
<g transform="translate(352,832) scale(5.4933333333333)"><rect width="6" height="6"/></g>
<g transform="translate(416,832) scale(5.4933333333333)"><rect width="6" height="6"/></g>
<g transform="translate(544,832) scale(5.4933333333333)"><rect width="6" height="6"/></g>
<g transform="translate(608,832) scale(5.4933333333333)"><rect width="6" height="6"/></g>
<g transform="translate(640,832) scale(5.4933333333333)"><rect width="6" height="6"/></g>
<g transform="translate(672,832) scale(5.4933333333333)"><rect width="6" height="6"/></g>
<g transform="translate(704,832) scale(5.4933333333333)"><rect width="6" height="6"/></g>
<g transform="translate(736,832) scale(5.4933333333333)"><rect width="6" height="6"/></g>
<g transform="translate(832,832) scale(5.4933333333333)"><rect width="6" height="6"/></g>
</g><g><g transform="translate(64,64)"  fill="#000000"><g transform="scale(16)"><path d="M0,0v14h14V0H0z M12,12H2V2h10V12z"/></g></g>
<g transform="translate(640,64)"  fill="#000000"><g transform="scale(16)"><path d="M0,0v14h14V0H0z M12,12H2V2h10V12z"/></g></g>
<g transform="translate(64,640)"  fill="#000000"><g transform="scale(16)"><path d="M0,0v14h14V0H0z M12,12H2V2h10V12z"/></g></g>
<g transform="translate(128,128)"  fill="#000000"><g transform="scale(16)"><rect width="6" height="6"/></g></g>
<g transform="translate(704,128)"  fill="#000000"><g transform="scale(16)"><rect width="6" height="6"/></g></g>
<g transform="translate(128,704)"  fill="#000000"><g transform="scale(16)"><rect width="6" height="6"/></g></g></g>
</svg>